<svg width="24" height="24" viewBox="0 0 24 24" fill="none" xmlns="http://www.w3.org/2000/svg">
<path d="M24 12C24 18.6274 18.6274 24 12 24C5.37258 24 0 18.6274 0 12C0 5.37258 5.37258 0 12 0C18.6274 0 24 5.37258 24 12Z" fill="#EF3B24"/>
<path fill-rule="evenodd" clip-rule="evenodd" d="M12 11.4545C13.5341 11.4545 14.7778 10.2335 14.7778 8.72727C14.7778 7.22104 13.5341 6 12 6C10.4659 6 9.22222 7.22104 9.22222 8.72727C9.22222 10.2335 10.4659 11.4545 12 11.4545ZM12 13.0909C15.8889 13.0909 17 15.0177 17 18H7C7 15.0177 8.11111 13.0909 12 13.0909Z" fill="white"/>
</svg>
