<svg width="1440" height="810" viewBox="0 0 1440 810" fill="none" xmlns="http://www.w3.org/2000/svg">
<g clip-path="url(#clip0_3_1915)">
<mask id="mask0_3_1915" style="mask-type:luminance" maskUnits="userSpaceOnUse" x="0" y="0" width="1440" height="810">
<path d="M1440 0H0V810H1440V0Z" fill="white"/>
</mask>
<g mask="url(#mask0_3_1915)">
<path d="M1440 0H0V810H1440V0Z" fill="white"/>
<path d="M1040.89 719.105L944.281 808.849M1040.89 719.105L989.137 808.849M1040.89 719.105L1103 808.849M1219.17 808.849L1324.98 575.284M1324.98 575.284L1438.85 647.77M1324.98 575.284L1303.13 808.849M1324.98 575.284L1366.39 808.849M776.358 1.15057L845.367 195.597M845.367 195.597C889.534 99.8693 932.78 26.0795 948.882 1.15057L845.367 195.597ZM845.367 195.597L1012.14 17.1493M845.367 195.597L1103 53.7207M1012.14 17.1493L1027.09 1.15057M1012.14 17.1493L1103 53.7207M1103 53.7207L1198.47 1.15057M0 276.136L44.8562 307.202M44.8562 307.202L0 249.673M44.8562 307.202L0 204.801M44.8562 307.202L87.4121 199.048M87.4121 199.048L71.2434 51.7756M87.4121 199.048L264.537 0M87.4121 199.048L435.911 249.673M87.4121 199.048L244.984 99.5241M71.2434 51.7756L65.5591 0M71.2434 51.7756L0 21.8608M71.2434 51.7756L0 58.679M435.911 249.673V0M435.911 249.673L349.649 0M435.911 249.673L244.984 99.5241M244.984 99.5241L402.556 0" stroke="#F2F2F2" stroke-width="5"/>
<path d="M127.668 251.974L90.8626 223.21L86.262 270.384L127.668 251.974Z" fill="#9ACA3C" fill-opacity="0.3"/>
<path d="M772.907 667.33L737.252 640.867L732.652 686.889L772.907 667.33Z" fill="#9ACA3C" fill-opacity="0.3"/>
<path d="M1094.95 669.631L1081.15 678.835L1094.95 691.491V669.631Z" fill="white"/>
<path d="M1020.19 598.295L1000.64 609.801V592.543L1020.19 598.295Z" fill="white"/>
<path d="M1299.68 515.455H1282.43L1295.08 533.864L1299.68 515.455Z" fill="white"/>
<path d="M1300.83 353.224L1281.28 361.278L1298.53 372.784L1300.83 353.224Z" fill="white"/>
<path d="M197.828 268.082L182.875 260.028V276.136L197.828 268.082Z" fill="white"/>
<path d="M936.23 735.213L906.326 717.955V751.321L936.23 735.213Z" fill="#EF3B24" fill-opacity="0.2"/>
<path d="M1290.48 587.94L1254.82 594.844L1276.68 616.705L1290.48 587.94Z" fill="#EF3B24" fill-opacity="0.2"/>
<path d="M1246.77 452.173L1212.27 447.571L1230.67 479.787L1246.77 452.173Z" fill="#EF3B24" fill-opacity="0.2"/>
<path d="M227.732 196.747L203.578 190.994L220.831 170.284L227.732 196.747Z" fill="#EF3B24" fill-opacity="0.2"/>
<path d="M150.671 149.574L124.217 159.929L150.671 181.79V149.574Z" fill="#14191A" fill-opacity="0.1"/>
<path d="M304.792 149.574L277.188 146.122L292.141 123.111L304.792 149.574Z" fill="#14191A" fill-opacity="0.1"/>
<path d="M1162.81 717.955L1201.92 696.094V740.966L1162.81 717.955Z" fill="#14191A" fill-opacity="0.1"/>
<path d="M1142.11 559.176L1100.7 541.918L1132.91 513.153L1142.11 559.176Z" fill="#14191A" fill-opacity="0.1"/>
<path d="M886.773 605.199L854.569 635.114L894.824 648.92L886.773 605.199Z" fill="#14191A" fill-opacity="0.1"/>
<path d="M1404.35 440.668L1364.09 453.324L1392.84 484.389L1404.35 440.668Z" fill="#14191A" fill-opacity="0.1"/>
<path d="M150.671 149.574L124.217 159.929L150.671 181.79V149.574Z" stroke="#14191A" stroke-opacity="0.1"/>
<path d="M304.792 149.574L277.188 146.122L292.141 123.111L304.792 149.574Z" stroke="#14191A" stroke-opacity="0.1"/>
<path d="M1162.81 717.955L1201.92 696.094V740.966L1162.81 717.955Z" stroke="#14191A" stroke-opacity="0.1"/>
<path d="M1142.11 559.176L1100.7 541.918L1132.91 513.153L1142.11 559.176Z" stroke="#14191A" stroke-opacity="0.1"/>
<path d="M886.773 605.199L854.569 635.114L894.824 648.92L886.773 605.199Z" stroke="#14191A" stroke-opacity="0.1"/>
<path d="M1404.35 440.668L1364.09 453.324L1392.84 484.389L1404.35 440.668Z" stroke="#14191A" stroke-opacity="0.1"/>
</g>
</g>
<defs>
<clipPath id="clip0_3_1915">
<rect width="1440" height="810" fill="white"/>
</clipPath>
</defs>
</svg>
