<svg width="425" height="87" viewBox="0 0 425 87" fill="none" xmlns="http://www.w3.org/2000/svg">
<path d="M38.8706 85.3923V23.9406H48.1721V85.3923H38.8706ZM71.2961 85.3923V23.9406H80.5118V54.0664L121.961 23.9406H134.691L96.4143 52.1381L137.134 85.3923H123.547L89.0417 57.5805L80.5118 63.7942V85.3923H71.2961ZM149.328 85.3923V23.9406H158.63L207.195 75.0218V23.9406H215.767V85.3923H206.551L157.945 34.3968V85.3923H149.328ZM271.424 86.2494C259.509 86.2494 250.237 83.4353 243.606 77.8073C236.977 72.1507 233.662 64.4656 233.662 54.7521C233.662 45.0102 236.977 37.2966 243.606 31.6112C250.264 25.9261 259.538 23.0835 271.424 23.0835C283.283 23.0835 292.528 25.9261 299.157 31.6112C305.815 37.2679 309.144 44.9815 309.144 54.7521C309.144 64.4084 305.815 72.0792 299.157 77.7644C292.528 83.421 283.283 86.2494 271.424 86.2494ZM271.424 78.7929C280.54 78.7929 287.514 76.6787 292.342 72.4506C297.171 68.1938 299.587 62.2943 299.587 54.7521C299.587 47.1814 297.171 41.2533 292.342 36.968C287.514 32.6827 280.54 30.54 271.424 30.54C262.252 30.54 255.236 32.6827 250.379 36.968C245.55 41.2533 243.134 47.1814 243.134 54.7521C243.134 62.2943 245.55 68.1938 250.379 72.4506C255.236 76.6787 262.252 78.7929 271.424 78.7929ZM340.456 85.3923L316.495 23.9406H326.482L345.471 74.5075L366.003 23.9406H375.475L395.921 74.3361L415.081 23.9406H424.812L400.766 85.3923H391.378L370.59 34.4825L349.672 85.3923H340.456Z" fill="#14191A"/>
<path d="M5.86241 42.2663L0.936035 40.2019L4.73972 30.4374L27.9295 2.55816L65.538 0.0751953L58.6587 11.9399L64.4698 23.324L23.1187 43.8843L17.3416 32.8587L9.53003 31.0681L5.86241 42.2663Z" fill="#EF3B24"/>
</svg>
