<svg width="313" height="64" viewBox="0 0 313 64" fill="none" xmlns="http://www.w3.org/2000/svg">
<path d="M30.0625 63V18.1875H36.8438V63H30.0625ZM53.7025 63V18.1875H60.4212V40.1562L90.64 18.1875H99.9212L72.015 38.75L101.702 63H91.7962L66.64 42.7187L60.4212 47.25V63H53.7025ZM110.592 63V18.1875H117.374L152.78 55.4375V18.1875H159.03V63H152.311L116.874 25.8125V63H110.592ZM199.607 63.625C190.92 63.625 184.16 61.5729 179.326 57.4687C174.493 53.3437 172.076 47.7396 172.076 40.6562C172.076 33.5521 174.493 27.9271 179.326 23.7812C184.18 19.6354 190.941 17.5625 199.607 17.5625C208.253 17.5625 214.993 19.6354 219.826 23.7812C224.68 27.9062 227.107 33.5312 227.107 40.6562C227.107 47.6979 224.68 53.2916 219.826 57.4375C214.993 61.5625 208.253 63.625 199.607 63.625ZM199.607 58.1875C206.253 58.1875 211.337 56.6458 214.857 53.5625C218.378 50.4583 220.139 46.1562 220.139 40.6562C220.139 35.1354 218.378 30.8125 214.857 27.6875C211.337 24.5625 206.253 23 199.607 23C192.92 23 187.805 24.5625 184.264 27.6875C180.743 30.8125 178.982 35.1354 178.982 40.6562C178.982 46.1562 180.743 50.4583 184.264 53.5625C187.805 56.6458 192.92 58.1875 199.607 58.1875ZM249.935 63L232.466 18.1875H239.747L253.591 55.0625L268.56 18.1875H275.466L290.372 54.9375L304.341 18.1875H311.435L293.904 63H287.06L271.904 25.875L256.654 63H249.935Z" fill="#14191A"/>
<path d="M5.99774 31.5512L2.40607 30.0458L5.17918 22.9252L22.0858 2.59482L49.5045 0.784171L44.4891 9.43628L48.7257 17.7379L18.5785 32.7311L14.3667 24.6909L8.67164 23.3851L5.99774 31.5512Z" fill="#EF3B24"/>
</svg>
