<svg width="24" height="24" viewBox="0 0 24 24" fill="none" xmlns="http://www.w3.org/2000/svg">
<path d="M5.31808 4.75281L2.98765 2L2 8.99999H8.91357L6.60574 6.27387C8.02978 4.86692 9.97665 4 12.1235 4C16.4872 4 20.0247 7.58172 20.0247 12C20.0247 16.4183 16.4872 20 12.1235 20C8.90443 20 6.13499 18.0509 4.90356 15.2547L3.10079 16.0674C4.00312 18.1193 5.56149 19.804 7.52479 20.8499C9.4881 21.8957 11.742 22.2419 13.9233 21.8325C16.1046 21.4232 18.0863 20.2822 19.549 18.5935C21.0118 16.9047 21.8703 14.7665 21.9865 12.5234C22.1026 10.2802 21.4694 8.06288 20.189 6.22855C18.9087 4.39422 17.0556 3.04976 14.9285 2.41181C12.8014 1.77385 10.5242 1.87956 8.46363 2.7119C7.28838 3.18665 6.22268 3.882 5.31808 4.75281Z" fill="#14191A"/>
</svg>
