<svg width="24" height="24" viewBox="0 0 24 24" fill="none" xmlns="http://www.w3.org/2000/svg">
<path d="M2.98765 2L5.31808 4.75281C6.22268 3.882 7.28838 3.18665 8.46363 2.71191C10.5242 1.87956 12.8014 1.77385 14.9285 2.41181C17.0556 3.04976 18.9087 4.39422 20.189 6.22855C21.4694 8.06288 22.1026 10.2802 21.9865 12.5234C21.8703 14.7665 21.0118 16.9047 19.549 18.5935C18.0863 20.2822 16.1046 21.4232 13.9233 21.8325C11.742 22.2419 9.4881 21.8957 7.52479 20.8499C5.56149 19.804 4.00312 18.1193 3.10079 16.0674L4.90356 15.2547C6.13499 18.0509 8.90443 20 12.1235 20C16.4872 20 20.0247 16.4183 20.0247 12C20.0247 7.58172 16.4872 4 12.1235 4C9.97665 4 8.02978 4.86692 6.60574 6.27387L8.91357 8.99999H2L2.98765 2Z" fill="#14191A"/>
<path d="M11.1358 6V13.3933L16.5343 16.8455L17.5891 15.1545L13.1111 12.2909V6H11.1358Z" fill="#14191A"/>
</svg>
